<?xml version="1.0" encoding="utf-8"?>
<!-- Generator: Adobe Illustrator 26.0.3, SVG Export Plug-In . SVG Version: 6.00 Build 0)  -->
<svg version="1.1" id="图层_1" xmlns="http://www.w3.org/2000/svg" xmlns:xlink="http://www.w3.org/1999/xlink" x="0px" y="0px"
	 viewBox="0 0 32 32" style="enable-background:new 0 0 32 32;" xml:space="preserve">
<style type="text/css">
	.st0{fill:#B5A4F4;}
	.st1{fill:#E7D4FC;}
	.st2{fill:#30125B;}
</style>
<path class="st0" d="M7.8,28h18c0.6,0,1-0.4,1-1V9.9c0-0.3-0.1-0.5-0.3-0.7l-4.9-4.9C21.4,4.1,21.1,4,20.8,4H7.8c-0.6,0-1,0.4-1,1
	v22C6.8,27.6,7.2,28,7.8,28z"/>
<path class="st1" d="M21.3,8.5V4L23,5.7l2.1,2.1l1.7,1.7h-4.5C21.7,9.5,21.3,9.1,21.3,8.5z"/>
<path class="st2" d="M17.3,14.5c1,1.4,0.9,3.3-0.3,4.6l-1.2,1.2c-0.2,0.2-0.5,0.2-0.7,0L10.8,16c-0.2-0.2-0.2-0.5,0-0.7l1.2-1.2
	c1.3-1.3,3.2-1.4,4.6-0.3l1.9-1.9c0.2-0.2,0.5-0.2,0.7,0c0.2,0.2,0.2,0.5,0,0.7L17.3,14.5z M11,18.3c0.2-0.2,0.2-0.5,0-0.7
	s-0.5-0.2-0.7,0L8.9,19l-0.5-0.5c-0.2-0.2-0.5-0.2-0.7,0l-1.2,1.2c-1.3,1.3-1.4,3.2-0.3,4.6l-1.9,1.9c-0.2,0.2-0.2,0.5,0,0.7
	c0.2,0.2,0.5,0.2,0.7,0L6.8,25c1.4,1,3.3,0.9,4.6-0.3l1.2-1.2c0.2-0.2,0.2-0.5,0-0.7l-0.5-0.5l1.4-1.4c0.2-0.2,0.2-0.5,0-0.7
	s-0.5-0.2-0.7,0l-1.4,1.4l-1.9-1.9L11,18.3z"/>
</svg>
