<?xml version="1.0" encoding="utf-8"?>
<!-- Generator: Adobe Illustrator 26.0.3, SVG Export Plug-In . SVG Version: 6.00 Build 0)  -->
<svg version="1.1" id="图层_1" xmlns="http://www.w3.org/2000/svg" xmlns:xlink="http://www.w3.org/1999/xlink" x="0px" y="0px"
	 viewBox="0 0 32 32" style="enable-background:new 0 0 32 32;" xml:space="preserve">
<style type="text/css">
	.st0{fill:#00C2EF;}
	.st1{fill:#9DEEFC;}
	.st2{fill:#153842;}
</style>
<path class="st0" d="M7.8,28h18c0.6,0,1-0.4,1-1V9.9c0-0.3-0.1-0.5-0.3-0.7l-4.9-4.9C21.4,4.1,21.1,4,20.8,4H7.8c-0.6,0-1,0.4-1,1
	v22C6.8,27.6,7.2,28,7.8,28z"/>
<path class="st1" d="M21.3,8.5V4L23,5.7l2.1,2.1l1.7,1.7h-4.5C21.7,9.5,21.3,9.1,21.3,8.5z"/>
<path class="st2" d="M14.7,12.5c1.3,0,2.3,1,2.3,2.3s-1,2.3-2.3,2.3c-0.6,0-1.2-0.3-1.6-0.7l-4.2,2.4C9,19,9,19.2,9,19.4
	c0,0.2,0,0.4-0.1,0.6l4.2,2.4c0.4-0.4,1-0.7,1.6-0.7c1.3,0,2.3,1,2.3,2.3s-1,2.3-2.3,2.3s-2.3-1-2.3-2.3c0-0.2,0-0.4,0.1-0.6L8.3,21
	c-0.4,0.4-1,0.7-1.6,0.7c-1.3,0-2.3-1-2.3-2.3c0-1.3,1-2.3,2.3-2.3c0.6,0,1.2,0.3,1.6,0.7l4.2-2.4c-0.1-0.2-0.1-0.4-0.1-0.6
	C12.4,13.5,13.5,12.5,14.7,12.5z"/>
</svg>
