<svg id="图层_1" data-name="图层 1" xmlns="http://www.w3.org/2000/svg" viewBox="0 0 32 32"><path d="M7.8,28h18a1,1,0,0,0,1-1V9.9a.9.9,0,0,0-.3-.7L21.6,4.3a1.1,1.1,0,0,0-.8-.3H7.8a.9.9,0,0,0-1,1V27A.9.9,0,0,0,7.8,28Z" style="fill:#00d09b"/><path d="M21.3,8.5V4L23,5.7l2.1,2.1,1.7,1.7H22.3A.9.9,0,0,1,21.3,8.5Z" style="fill:#73ffcc"/><path d="M19.1,13.1a.6.6,0,0,1,.6.6h0V25a.6.6,0,0,1-.6.6.6.6,0,0,1-.6-.5h0V13.8C18.5,13.4,18.7,13.1,19.1,13.1Zm-7.6,1.6h.1a.8.8,0,0,1,1.1,0h.1L17,18.8a.8.8,0,0,1,0,1.1h0l-4.2,4.2a.9.9,0,0,1-1.3-1.1h.1l2.8-2.8H3.9a.9.9,0,0,1-.9-.7H3a.8.8,0,0,1,.8-.8H14.4l-2.8-2.8a.9.9,0,0,1-.1-1.1h0Z" style="fill:#103508"/></svg>